<?xml version="1.0" standalone="no"?>
<!DOCTYPE svg PUBLIC "-//W3C//DTD SVG 20010904//EN"
 "http://www.w3.org/TR/2001/REC-SVG-20010904/DTD/svg10.dtd">
<svg version="1.0" xmlns="http://www.w3.org/2000/svg"
 width="519.000000pt" height="802.000000pt" viewBox="0 0 519.000000 802.000000"
 preserveAspectRatio="xMidYMid meet">
<metadata>
Created by potrace 1.16, written by Peter Selinger 2001-2019
</metadata>
<g transform="translate(0.000000,802.000000) scale(0.100000,-0.100000)"
fill="#000000" stroke="none">
<path d="M3187 5871 c-108 -24 -226 -78 -283 -131 -134 -123 -348 -255 -504
-311 -144 -50 -248 -69 -385 -69 -187 0 -372 42 -719 162 -93 32 -171 57 -173
55 -5 -6 271 -123 402 -172 210 -78 380 -105 543 -87 239 27 470 129 752 331
129 92 212 135 312 160 381 98 706 -56 814 -386 26 -78 29 -102 29 -208 -1
-113 -3 -124 -31 -185 -38 -81 -128 -180 -227 -248 -41 -28 -154 -94 -253
-148 -201 -108 -223 -122 -277 -173 -72 -67 -95 -152 -63 -226 13 -29 13 -29
9 16 -12 110 55 172 341 315 256 129 331 177 416 263 109 110 150 213 150 377
0 320 -185 582 -466 659 -95 26 -282 29 -387 6z"/>
<path d="M926 5604 c84 -148 269 -385 433 -556 206 -216 474 -418 634 -478
113 -42 129 -52 155 -101 44 -84 23 -211 -49 -293 -52 -59 -132 -86 -274 -93
-154 -8 -265 29 -402 131 -119 90 -207 200 -410 516 -140 217 -190 284 -199
262 -13 -30 -99 -135 -147 -178 -119 -108 -331 -250 -555 -374 -62 -34 -110
-65 -107 -69 2 -5 31 -11 64 -15 199 -23 499 -124 711 -241 230 -128 408 -273
765 -629 289 -288 403 -389 530 -472 127 -82 264 -145 345 -158 19 -3 60 -11
90 -18 37 -9 132 -13 285 -13 247 0 314 9 475 62 247 83 436 243 625 529 54
82 132 201 174 264 98 149 170 222 233 238 85 22 398 6 398 -19 0 -10 -150
-99 -166 -99 -23 0 -85 -31 -79 -40 6 -10 89 16 152 49 46 23 65 20 101 -14
37 -37 130 -56 291 -62 162 -5 184 0 159 39 -38 58 -216 115 -317 102 -53 -7
-120 -21 -144 -30 -29 -11 -18 10 16 30 17 11 34 19 37 19 3 0 20 -3 37 -6 39
-8 43 4 8 23 -45 24 -12 35 88 32 74 -3 105 0 154 17 105 35 188 95 136 98
-10 0 -65 4 -123 8 -81 5 -114 4 -146 -7 l-41 -15 20 58 c21 57 22 57 80 73
43 12 71 29 109 63 49 46 85 100 74 110 -11 11 -151 -33 -192 -60 -40 -27 -55
-49 -70 -112 l-7 -30 -8 32 c-10 34 -56 85 -104 115 -47 28 -52 24 -47 -44 6
-94 22 -122 80 -149 l50 -23 -19 -36 c-10 -19 -31 -50 -47 -68 l-28 -33 -53
53 c-93 93 -129 173 -167 368 -18 95 -30 134 -51 164 -28 40 -91 78 -148 91
-29 6 -29 6 11 -23 52 -38 70 -78 95 -206 11 -58 28 -129 38 -159 33 -94 102
-187 181 -242 22 -15 39 -30 37 -32 -2 -2 -57 6 -121 17 -145 25 -304 26 -369
4 -76 -26 -110 -68 -360 -450 -166 -253 -305 -387 -498 -478 -116 -55 -211
-82 -357 -101 -335 -44 -607 6 -847 156 -136 85 -259 192 -565 494 -157 154
-320 309 -363 344 -188 153 -428 289 -632 361 -105 37 -298 85 -379 95 -32 4
-54 11 -49 15 4 4 46 22 93 40 172 67 319 148 418 229 40 33 146 156 171 198
10 17 12 16 31 -7 11 -14 80 -113 152 -220 72 -107 156 -225 185 -262 126
-158 257 -260 402 -312 82 -29 94 -31 236 -31 131 0 156 3 196 21 133 61 209
237 166 385 -21 71 -56 103 -152 139 -312 116 -789 546 -1070 964 -65 97 -106
131 -59 50z m4184 -1303 c-33 -47 -96 -97 -139 -109 -41 -13 -71 -15 -71 -7 0
23 32 74 56 90 31 20 127 54 157 54 17 1 17 -1 -3 -28z m-328 -37 c50 -35 78
-82 78 -132 0 -40 -1 -40 -28 -33 -45 13 -71 33 -87 67 -15 32 -21 124 -8 124
4 0 24 -12 45 -26z m363 -224 c17 -6 13 -11 -30 -32 -99 -51 -199 -69 -283
-52 -27 6 -30 9 -21 25 27 52 121 81 234 72 44 -3 89 -9 100 -13z m-134 -200
c63 -19 139 -63 139 -79 0 -15 -117 -21 -230 -11 -113 10 -182 31 -208 63 -12
14 -8 18 35 31 70 21 188 20 264 -4z"/>
</g>
</svg>
